{
	"asset":{
		"generator":"Khronos glTF Blender I/O v3.6.28",
		"version":"2.0"
	},
	"extensionsUsed":[
		"KHR_materials_specular",
		"KHR_materials_ior"
	],
	"scene":0,
	"scenes":[
		{
			"name":"Scene",
			"nodes":[
				0,
				1,
				2,
				3,
				4,
				5,
				6,
				7,
				8,
				9,
				10,
				11,
				12,
				13,
				14,
				15,
				16
			]
		}
	],
	"nodes":[
		{
			"name":"\u7a7a\u7269\u4f53",
			"rotation":[
				0.70710688829422,
				0,
				0,
				0.7071066498756409
			],
			"translation":[
				0,
				0,
				-3.3955953121185303
			]
		},
		{
			"mesh":0,
			"name":"\u73af\u4f53.001",
			"rotation":[
				-0.17295214533805847,
				-0.10313250869512558,
				-0.2531319558620453,
				0.9462429285049438
			],
			"scale":[
				0.8204390406608582,
				1.5737299919128418,
				0.7185263633728027
			],
			"translation":[
				-0.18878625333309174,
				1.0949721336364746,
				-0.031287986785173416
			]
		},
		{
			"mesh":1,
			"name":"\u73af\u4f53.002",
			"rotation":[
				-0.25970831513404846,
				-0.4437839686870575,
				-0.1576932966709137,
				0.8430541157722473
			],
			"scale":[
				0.6107715964317322,
				0.801013708114624,
				0.6107714176177979
			],
			"translation":[
				0.139548197388649,
				1.5500932931900024,
				-0.18775412440299988
			]
		},
		{
			"mesh":2,
			"name":"\u73af\u4f53.003",
			"rotation":[
				-0.32850050926208496,
				-0.29133841395378113,
				-0.15859781205654144,
				0.884339451789856
			],
			"scale":[
				0.39274320006370544,
				1.1944178342819214,
				0.39274320006370544
			],
			"translation":[
				0.29599446058273315,
				1.7443230152130127,
				-0.21672523021697998
			]
		},
		{
			"mesh":3,
			"name":"\u73af\u4f53.004",
			"rotation":[
				-0.09922678768634796,
				0.8172749876976013,
				0.16684895753860474,
				0.5425654649734497
			],
			"scale":[
				0.43278050422668457,
				0.5439258217811584,
				0.43278053402900696
			],
			"translation":[
				-0.29481515288352966,
				-0.43728774785995483,
				-0.05506265163421631
			]
		},
		{
			"mesh":4,
			"name":"\u73af\u4f53.005",
			"rotation":[
				-0.12406570464372635,
				0.8138746023178101,
				0.183291956782341,
				0.5372335314750671
			],
			"scale":[
				0.6534667611122131,
				0.8212881088256836,
				0.6534668207168579
			],
			"translation":[
				-0.16950179636478424,
				-0.7013224959373474,
				-0.055062685161828995
			]
		},
		{
			"mesh":5,
			"name":"\u73af\u4f53.006",
			"rotation":[
				-0.41708484292030334,
				-0.7210039496421814,
				0.5109429955482483,
				0.21244046092033386
			],
			"scale":[
				0.0869365707039833,
				0.0889987051486969,
				0.10428643226623535
			],
			"translation":[
				-0.9297091364860535,
				0.13524466753005981,
				0.6381677389144897
			]
		},
		{
			"mesh":6,
			"name":"\u7403\u4f53",
			"rotation":[
				0,
				0,
				-0.3233678936958313,
				0.9462734460830688
			],
			"scale":[
				0.8483682870864868,
				0.9399770498275757,
				0.8483682870864868
			],
			"translation":[
				-0.5013531446456909,
				0.5219919085502625,
				0
			]
		},
		{
			"mesh":7,
			"name":"\u7403\u4f53.001",
			"scale":[
				0.28117188811302185,
				0.28117188811302185,
				0.28117188811302185
			],
			"translation":[
				-1.1447328329086304,
				0.8726139664649963,
				0.5162153244018555
			]
		},
		{
			"mesh":8,
			"name":"\u7403\u4f53.002",
			"scale":[
				0.2930144965648651,
				0.2930144965648651,
				0.2930144965648651
			],
			"translation":[
				-0.38969141244888306,
				0.6200311183929443,
				0.8541606664657593
			]
		},
		{
			"mesh":9,
			"name":"\u7403\u4f53.003",
			"scale":[
				0.16137811541557312,
				0.16137811541557312,
				0.16137811541557312
			],
			"translation":[
				0.43316254019737244,
				0.1518431007862091,
				0.31948286294937134
			]
		},
		{
			"mesh":10,
			"name":"\u7403\u4f53.004",
			"scale":[
				0.12280502915382385,
				0.12280502915382385,
				0.12280502915382385
			],
			"translation":[
				-1.0814235210418701,
				0.8093047142028809,
				0.7608997225761414
			]
		},
		{
			"mesh":11,
			"name":"\u7403\u4f53.005",
			"scale":[
				0.12366031110286713,
				0.12366031110286713,
				0.12366031110286713
			],
			"translation":[
				-0.28419554233551025,
				0.5950303077697754,
				1.1231520175933838
			]
		},
		{
			"mesh":12,
			"name":"\u7acb\u65b9\u4f53",
			"rotation":[
				0.3725259006023407,
				0.367594838142395,
				0.3472559154033661,
				0.7781463861465454
			],
			"scale":[
				-0.29871633648872375,
				-0.24604623019695282,
				-0.07657022029161453
			],
			"translation":[
				-0.7862994074821472,
				0.5433635115623474,
				0.5754704475402832
			]
		},
		{
			"mesh":13,
			"name":"\u7acb\u65b9\u4f53.001",
			"rotation":[
				-0.1333281695842743,
				0.9132901430130005,
				0.05741378664970398,
				0.38056322932243347
			],
			"scale":[
				0.2771759629249573,
				1.0251824855804443,
				0.06501467525959015
			],
			"translation":[
				0.6517181396484375,
				0.14708608388900757,
				-0.1646370142698288
			]
		},
		{
			"mesh":14,
			"name":"\u7acb\u65b9\u4f53.002",
			"rotation":[
				-0.9132901430130005,
				-0.1333281695842743,
				-0.38056325912475586,
				0.057413797825574875
			],
			"scale":[
				-0.3016670048236847,
				-0.24431335926055908,
				-0.09576641768217087
			],
			"translation":[
				0.9515933394432068,
				-0.8507052063941956,
				-0.165372833609581
			]
		},
		{
			"mesh":15,
			"name":"\u9525\u4f53.001",
			"rotation":[
				0,
				0,
				0.12812258303165436,
				0.9917583465576172
			],
			"scale":[
				1.5033938884735107,
				1.5033938884735107,
				1.5033938884735107
			],
			"translation":[
				0.009014613926410675,
				-1.4058550596237183,
				-0.049064040184020996
			]
		}
	],
	"materials":[
		{
			"doubleSided":true,
			"name":"\u84dd\u8272\u5934\u5dfe",
			"pbrMetallicRoughness":{
				"baseColorFactor":[
					0.018100641667842865,
					0.018808091059327126,
					0.8858350515365601,
					1
				],
				"metallicFactor":0.8233215808868408,
				"roughnessFactor":0.3162544369697571
			}
		},
		{
			"doubleSided":true,
			"name":"\u5934\u5dfe\u5927",
			"pbrMetallicRoughness":{
				"baseColorFactor":[
					0.7912979125976562,
					0.23680435121059418,
					0.013984386809170246,
					1
				],
				"metallicFactor":0,
				"roughnessFactor":0.5
			}
		},
		{
			"doubleSided":true,
			"name":"\u5934\u5dfe\u5c0f",
			"pbrMetallicRoughness":{
				"baseColorFactor":[
					1,
					0.12967698276042938,
					0.012868544086813927,
					1
				],
				"metallicFactor":0,
				"roughnessFactor":0.5
			}
		},
		{
			"doubleSided":true,
			"extensions":{
				"KHR_materials_specular":{
					"specularColorFactor":[
						2.1325460228464235,
						2.1325460228464235,
						2.1325460228464235
					]
				},
				"KHR_materials_ior":{
					"ior":1.4500000476837158
				}
			},
			"name":"\u773c\u767d",
			"pbrMetallicRoughness":{
				"baseColorFactor":[
					0.800000011920929,
					0.800000011920929,
					0.800000011920929,
					1
				],
				"metallicFactor":0.268551230430603,
				"roughnessFactor":0.5
			}
		},
		{
			"doubleSided":true,
			"name":"\u5634\u5507",
			"pbrMetallicRoughness":{
				"baseColorFactor":[
					0.708375871181488,
					0.15592624247074127,
					0.09989877790212631,
					1
				],
				"metallicFactor":0,
				"roughnessFactor":0.5
			}
		},
		{
			"doubleSided":true,
			"name":"\u8138\u90e8",
			"pbrMetallicRoughness":{
				"baseColorFactor":[
					1,
					0.3835306763648987,
					0.35028505325317383,
					1
				],
				"metallicFactor":0,
				"roughnessFactor":0.5
			}
		},
		{
			"doubleSided":true,
			"extensions":{
				"KHR_materials_specular":{
					"specularColorFactor":[
						2.371357614441398,
						2.371357614441398,
						2.371357614441398
					]
				},
				"KHR_materials_ior":{
					"ior":1.4500000476837158
				}
			},
			"name":"\u8033\u73af",
			"pbrMetallicRoughness":{
				"metallicFactor":0.2226148545742035,
				"roughnessFactor":0.18197880685329437
			}
		},
		{
			"doubleSided":true,
			"extensions":{
				"KHR_materials_specular":{
					"specularColorFactor":[
						1.763854343651426,
						1.763854343651426,
						1.763854343651426
					]
				},
				"KHR_materials_ior":{
					"ior":1.4500000476837158
				}
			},
			"name":"\u773c\u7403",
			"pbrMetallicRoughness":{
				"baseColorFactor":[
					0,
					0,
					0,
					1
				],
				"metallicFactor":0.5194346308708191,
				"roughnessFactor":0.02473498322069645
			}
		}
	],
	"meshes":[
		{
			"name":"\u73af\u4f53.001",
			"primitives":[
				{
					"attributes":{
						"POSITION":0,
						"NORMAL":1,
						"TEXCOORD_0":2
					},
					"indices":3,
					"material":0
				}
			]
		},
		{
			"name":"\u73af\u4f53.002",
			"primitives":[
				{
					"attributes":{
						"POSITION":4,
						"NORMAL":5,
						"TEXCOORD_0":6
					},
					"indices":3,
					"material":1
				}
			]
		},
		{
			"name":"\u73af\u4f53.003",
			"primitives":[
				{
					"attributes":{
						"POSITION":7,
						"NORMAL":8,
						"TEXCOORD_0":9
					},
					"indices":10,
					"material":2
				}
			]
		},
		{
			"name":"\u73af\u4f53.004",
			"primitives":[
				{
					"attributes":{
						"POSITION":11,
						"NORMAL":12,
						"TEXCOORD_0":13
					},
					"indices":14,
					"material":3
				}
			]
		},
		{
			"name":"\u73af\u4f53.005",
			"primitives":[
				{
					"attributes":{
						"POSITION":15,
						"NORMAL":16,
						"TEXCOORD_0":17
					},
					"indices":14,
					"material":2
				}
			]
		},
		{
			"name":"\u73af\u4f53.006",
			"primitives":[
				{
					"attributes":{
						"POSITION":18,
						"NORMAL":19,
						"TEXCOORD_0":20
					},
					"indices":21,
					"material":4
				}
			]
		},
		{
			"name":"\u7403\u4f53",
			"primitives":[
				{
					"attributes":{
						"COLOR_0":22,
						"POSITION":23,
						"NORMAL":24,
						"TEXCOORD_0":25
					},
					"indices":26,
					"material":5
				}
			]
		},
		{
			"name":"\u7403\u4f53.001",
			"primitives":[
				{
					"attributes":{
						"POSITION":27,
						"NORMAL":28,
						"TEXCOORD_0":29
					},
					"indices":30,
					"material":3
				}
			]
		},
		{
			"name":"\u7403\u4f53.002",
			"primitives":[
				{
					"attributes":{
						"POSITION":31,
						"NORMAL":32,
						"TEXCOORD_0":33
					},
					"indices":30,
					"material":3
				}
			]
		},
		{
			"name":"\u7403\u4f53.003",
			"primitives":[
				{
					"attributes":{
						"POSITION":34,
						"NORMAL":35,
						"TEXCOORD_0":36
					},
					"indices":30,
					"material":6
				}
			]
		},
		{
			"name":"\u7403\u4f53.004",
			"primitives":[
				{
					"attributes":{
						"POSITION":37,
						"NORMAL":38,
						"TEXCOORD_0":39
					},
					"indices":30,
					"material":7
				}
			]
		},
		{
			"name":"\u7403\u4f53.005",
			"primitives":[
				{
					"attributes":{
						"POSITION":40,
						"NORMAL":41,
						"TEXCOORD_0":42
					},
					"indices":30,
					"material":7
				}
			]
		},
		{
			"name":"\u7acb\u65b9\u4f53",
			"primitives":[
				{
					"attributes":{
						"POSITION":43,
						"NORMAL":44,
						"TEXCOORD_0":45
					},
					"indices":46,
					"material":5
				}
			]
		},
		{
			"name":"\u7acb\u65b9\u4f53.001",
			"primitives":[
				{
					"attributes":{
						"POSITION":47,
						"NORMAL":48,
						"TEXCOORD_0":49
					},
					"indices":46,
					"material":2
				}
			]
		},
		{
			"name":"\u7acb\u65b9\u4f53.003",
			"primitives":[
				{
					"attributes":{
						"POSITION":50,
						"NORMAL":51,
						"TEXCOORD_0":52
					},
					"indices":46
				}
			]
		},
		{
			"name":"\u9525\u4f53.005",
			"primitives":[
				{
					"attributes":{
						"POSITION":53,
						"NORMAL":54,
						"TEXCOORD_0":55
					},
					"indices":56,
					"material":1
				}
			]
		}
	],
	"accessors":[
		{
			"bufferView":0,
			"componentType":5126,
			"count":5559,
			"max":[
				1.25,
				0.24950668215751648,
				1.25
			],
			"min":[
				-1.25,
				-0.24950668215751648,
				-1.25
			],
			"type":"VEC3"
		},
		{
			"bufferView":1,
			"componentType":5126,
			"count":5559,
			"type":"VEC3"
		},
		{
			"bufferView":2,
			"componentType":5126,
			"count":5559,
			"type":"VEC2"
		},
		{
			"bufferView":3,
			"componentType":5123,
			"count":32400,
			"type":"SCALAR"
		},
		{
			"bufferView":4,
			"componentType":5126,
			"count":5559,
			"max":[
				1.25,
				0.24950668215751648,
				1.25
			],
			"min":[
				-1.25,
				-0.24950668215751648,
				-1.25
			],
			"type":"VEC3"
		},
		{
			"bufferView":5,
			"componentType":5126,
			"count":5559,
			"type":"VEC3"
		},
		{
			"bufferView":6,
			"componentType":5126,
			"count":5559,
			"type":"VEC2"
		},
		{
			"bufferView":7,
			"componentType":5126,
			"count":2415,
			"max":[
				1.25,
				0.24893353879451752,
				1.25
			],
			"min":[
				-1.25,
				-0.24893353879451752,
				-1.25
			],
			"type":"VEC3"
		},
		{
			"bufferView":8,
			"componentType":5126,
			"count":2415,
			"type":"VEC3"
		},
		{
			"bufferView":9,
			"componentType":5126,
			"count":2415,
			"type":"VEC2"
		},
		{
			"bufferView":10,
			"componentType":5123,
			"count":13872,
			"type":"SCALAR"
		},
		{
			"bufferView":11,
			"componentType":5126,
			"count":1827,
			"max":[
				1.25,
				0.25,
				1.2483956813812256
			],
			"min":[
				-1.25,
				-0.25,
				-1.2483956813812256
			],
			"type":"VEC3"
		},
		{
			"bufferView":12,
			"componentType":5126,
			"count":1827,
			"type":"VEC3"
		},
		{
			"bufferView":13,
			"componentType":5126,
			"count":1827,
			"type":"VEC2"
		},
		{
			"bufferView":14,
			"componentType":5123,
			"count":10416,
			"type":"SCALAR"
		},
		{
			"bufferView":15,
			"componentType":5126,
			"count":1827,
			"max":[
				1.25,
				0.25,
				1.2483956813812256
			],
			"min":[
				-1.25,
				-0.25,
				-1.2483956813812256
			],
			"type":"VEC3"
		},
		{
			"bufferView":16,
			"componentType":5126,
			"count":1827,
			"type":"VEC3"
		},
		{
			"bufferView":17,
			"componentType":5126,
			"count":1827,
			"type":"VEC2"
		},
		{
			"bufferView":18,
			"componentType":5126,
			"count":2600,
			"max":[
				1.25,
				0.24987155199050903,
				1.249407172203064
			],
			"min":[
				-1.247629165649414,
				-0.24987155199050903,
				-1.249407172203064
			],
			"type":"VEC3"
		},
		{
			"bufferView":19,
			"componentType":5126,
			"count":2600,
			"type":"VEC3"
		},
		{
			"bufferView":20,
			"componentType":5126,
			"count":2600,
			"type":"VEC2"
		},
		{
			"bufferView":21,
			"componentType":5123,
			"count":14994,
			"type":"SCALAR"
		},
		{
			"bufferView":22,
			"componentType":5123,
			"count":3066,
			"normalized":true,
			"type":"VEC4"
		},
		{
			"bufferView":23,
			"componentType":5126,
			"count":3066,
			"max":[
				0.9980596899986267,
				1,
				0.9995253682136536
			],
			"min":[
				-0.9980592131614685,
				-1,
				-0.9995257258415222
			],
			"type":"VEC3"
		},
		{
			"bufferView":24,
			"componentType":5126,
			"count":3066,
			"type":"VEC3"
		},
		{
			"bufferView":25,
			"componentType":5126,
			"count":3066,
			"type":"VEC2"
		},
		{
			"bufferView":26,
			"componentType":5123,
			"count":17400,
			"type":"SCALAR"
		},
		{
			"bufferView":27,
			"componentType":5126,
			"count":3066,
			"max":[
				0.9980596899986267,
				1,
				0.9995253682136536
			],
			"min":[
				-0.9980592131614685,
				-1,
				-0.9995257258415222
			],
			"type":"VEC3"
		},
		{
			"bufferView":28,
			"componentType":5126,
			"count":3066,
			"type":"VEC3"
		},
		{
			"bufferView":29,
			"componentType":5126,
			"count":3066,
			"type":"VEC2"
		},
		{
			"bufferView":30,
			"componentType":5123,
			"count":17400,
			"type":"SCALAR"
		},
		{
			"bufferView":31,
			"componentType":5126,
			"count":3066,
			"max":[
				0.9980596899986267,
				1,
				0.9995253682136536
			],
			"min":[
				-0.9980592131614685,
				-1,
				-0.9995257258415222
			],
			"type":"VEC3"
		},
		{
			"bufferView":32,
			"componentType":5126,
			"count":3066,
			"type":"VEC3"
		},
		{
			"bufferView":33,
			"componentType":5126,
			"count":3066,
			"type":"VEC2"
		},
		{
			"bufferView":34,
			"componentType":5126,
			"count":3066,
			"max":[
				0.9980596899986267,
				1,
				0.9995253682136536
			],
			"min":[
				-0.9980592131614685,
				-1,
				-0.9995257258415222
			],
			"type":"VEC3"
		},
		{
			"bufferView":35,
			"componentType":5126,
			"count":3066,
			"type":"VEC3"
		},
		{
			"bufferView":36,
			"componentType":5126,
			"count":3066,
			"type":"VEC2"
		},
		{
			"bufferView":37,
			"componentType":5126,
			"count":3066,
			"max":[
				0.9980596899986267,
				1,
				0.9995253682136536
			],
			"min":[
				-0.9980592131614685,
				-1,
				-0.9995257258415222
			],
			"type":"VEC3"
		},
		{
			"bufferView":38,
			"componentType":5126,
			"count":3066,
			"type":"VEC3"
		},
		{
			"bufferView":39,
			"componentType":5126,
			"count":3066,
			"type":"VEC2"
		},
		{
			"bufferView":40,
			"componentType":5126,
			"count":3066,
			"max":[
				0.9980596899986267,
				1,
				0.9995253682136536
			],
			"min":[
				-0.9980592131614685,
				-1,
				-0.9995257258415222
			],
			"type":"VEC3"
		},
		{
			"bufferView":41,
			"componentType":5126,
			"count":3066,
			"type":"VEC3"
		},
		{
			"bufferView":42,
			"componentType":5126,
			"count":3066,
			"type":"VEC2"
		},
		{
			"bufferView":43,
			"componentType":5126,
			"count":24,
			"max":[
				1,
				1,
				1
			],
			"min":[
				-1,
				-1,
				-1
			],
			"type":"VEC3"
		},
		{
			"bufferView":44,
			"componentType":5126,
			"count":24,
			"type":"VEC3"
		},
		{
			"bufferView":45,
			"componentType":5126,
			"count":24,
			"type":"VEC2"
		},
		{
			"bufferView":46,
			"componentType":5123,
			"count":36,
			"type":"SCALAR"
		},
		{
			"bufferView":47,
			"componentType":5126,
			"count":24,
			"max":[
				1,
				1,
				1
			],
			"min":[
				-1,
				-1,
				-1
			],
			"type":"VEC3"
		},
		{
			"bufferView":48,
			"componentType":5126,
			"count":24,
			"type":"VEC3"
		},
		{
			"bufferView":49,
			"componentType":5126,
			"count":24,
			"type":"VEC2"
		},
		{
			"bufferView":50,
			"componentType":5126,
			"count":24,
			"max":[
				1,
				1,
				1
			],
			"min":[
				-1,
				-1,
				-1
			],
			"type":"VEC3"
		},
		{
			"bufferView":51,
			"componentType":5126,
			"count":24,
			"type":"VEC3"
		},
		{
			"bufferView":52,
			"componentType":5126,
			"count":24,
			"type":"VEC2"
		},
		{
			"bufferView":53,
			"componentType":5126,
			"count":107,
			"max":[
				1.0995169878005981,
				1,
				1.098068118095398
			],
			"min":[
				-1.0995169878005981,
				-1,
				-1.100000023841858
			],
			"type":"VEC3"
		},
		{
			"bufferView":54,
			"componentType":5126,
			"count":107,
			"type":"VEC3"
		},
		{
			"bufferView":55,
			"componentType":5126,
			"count":107,
			"type":"VEC2"
		},
		{
			"bufferView":56,
			"componentType":5123,
			"count":312,
			"type":"SCALAR"
		}
	],
	"bufferViews":[
		{
			"buffer":0,
			"byteLength":66708,
			"byteOffset":0,
			"target":34962
		},
		{
			"buffer":0,
			"byteLength":66708,
			"byteOffset":66708,
			"target":34962
		},
		{
			"buffer":0,
			"byteLength":44472,
			"byteOffset":133416,
			"target":34962
		},
		{
			"buffer":0,
			"byteLength":64800,
			"byteOffset":177888,
			"target":34963
		},
		{
			"buffer":0,
			"byteLength":66708,
			"byteOffset":242688,
			"target":34962
		},
		{
			"buffer":0,
			"byteLength":66708,
			"byteOffset":309396,
			"target":34962
		},
		{
			"buffer":0,
			"byteLength":44472,
			"byteOffset":376104,
			"target":34962
		},
		{
			"buffer":0,
			"byteLength":28980,
			"byteOffset":420576,
			"target":34962
		},
		{
			"buffer":0,
			"byteLength":28980,
			"byteOffset":449556,
			"target":34962
		},
		{
			"buffer":0,
			"byteLength":19320,
			"byteOffset":478536,
			"target":34962
		},
		{
			"buffer":0,
			"byteLength":27744,
			"byteOffset":497856,
			"target":34963
		},
		{
			"buffer":0,
			"byteLength":21924,
			"byteOffset":525600,
			"target":34962
		},
		{
			"buffer":0,
			"byteLength":21924,
			"byteOffset":547524,
			"target":34962
		},
		{
			"buffer":0,
			"byteLength":14616,
			"byteOffset":569448,
			"target":34962
		},
		{
			"buffer":0,
			"byteLength":20832,
			"byteOffset":584064,
			"target":34963
		},
		{
			"buffer":0,
			"byteLength":21924,
			"byteOffset":604896,
			"target":34962
		},
		{
			"buffer":0,
			"byteLength":21924,
			"byteOffset":626820,
			"target":34962
		},
		{
			"buffer":0,
			"byteLength":14616,
			"byteOffset":648744,
			"target":34962
		},
		{
			"buffer":0,
			"byteLength":31200,
			"byteOffset":663360,
			"target":34962
		},
		{
			"buffer":0,
			"byteLength":31200,
			"byteOffset":694560,
			"target":34962
		},
		{
			"buffer":0,
			"byteLength":20800,
			"byteOffset":725760,
			"target":34962
		},
		{
			"buffer":0,
			"byteLength":29988,
			"byteOffset":746560,
			"target":34963
		},
		{
			"buffer":0,
			"byteLength":24528,
			"byteOffset":776548,
			"target":34962
		},
		{
			"buffer":0,
			"byteLength":36792,
			"byteOffset":801076,
			"target":34962
		},
		{
			"buffer":0,
			"byteLength":36792,
			"byteOffset":837868,
			"target":34962
		},
		{
			"buffer":0,
			"byteLength":24528,
			"byteOffset":874660,
			"target":34962
		},
		{
			"buffer":0,
			"byteLength":34800,
			"byteOffset":899188,
			"target":34963
		},
		{
			"buffer":0,
			"byteLength":36792,
			"byteOffset":933988,
			"target":34962
		},
		{
			"buffer":0,
			"byteLength":36792,
			"byteOffset":970780,
			"target":34962
		},
		{
			"buffer":0,
			"byteLength":24528,
			"byteOffset":1007572,
			"target":34962
		},
		{
			"buffer":0,
			"byteLength":34800,
			"byteOffset":1032100,
			"target":34963
		},
		{
			"buffer":0,
			"byteLength":36792,
			"byteOffset":1066900,
			"target":34962
		},
		{
			"buffer":0,
			"byteLength":36792,
			"byteOffset":1103692,
			"target":34962
		},
		{
			"buffer":0,
			"byteLength":24528,
			"byteOffset":1140484,
			"target":34962
		},
		{
			"buffer":0,
			"byteLength":36792,
			"byteOffset":1165012,
			"target":34962
		},
		{
			"buffer":0,
			"byteLength":36792,
			"byteOffset":1201804,
			"target":34962
		},
		{
			"buffer":0,
			"byteLength":24528,
			"byteOffset":1238596,
			"target":34962
		},
		{
			"buffer":0,
			"byteLength":36792,
			"byteOffset":1263124,
			"target":34962
		},
		{
			"buffer":0,
			"byteLength":36792,
			"byteOffset":1299916,
			"target":34962
		},
		{
			"buffer":0,
			"byteLength":24528,
			"byteOffset":1336708,
			"target":34962
		},
		{
			"buffer":0,
			"byteLength":36792,
			"byteOffset":1361236,
			"target":34962
		},
		{
			"buffer":0,
			"byteLength":36792,
			"byteOffset":1398028,
			"target":34962
		},
		{
			"buffer":0,
			"byteLength":24528,
			"byteOffset":1434820,
			"target":34962
		},
		{
			"buffer":0,
			"byteLength":288,
			"byteOffset":1459348,
			"target":34962
		},
		{
			"buffer":0,
			"byteLength":288,
			"byteOffset":1459636,
			"target":34962
		},
		{
			"buffer":0,
			"byteLength":192,
			"byteOffset":1459924,
			"target":34962
		},
		{
			"buffer":0,
			"byteLength":72,
			"byteOffset":1460116,
			"target":34963
		},
		{
			"buffer":0,
			"byteLength":288,
			"byteOffset":1460188,
			"target":34962
		},
		{
			"buffer":0,
			"byteLength":288,
			"byteOffset":1460476,
			"target":34962
		},
		{
			"buffer":0,
			"byteLength":192,
			"byteOffset":1460764,
			"target":34962
		},
		{
			"buffer":0,
			"byteLength":288,
			"byteOffset":1460956,
			"target":34962
		},
		{
			"buffer":0,
			"byteLength":288,
			"byteOffset":1461244,
			"target":34962
		},
		{
			"buffer":0,
			"byteLength":192,
			"byteOffset":1461532,
			"target":34962
		},
		{
			"buffer":0,
			"byteLength":1284,
			"byteOffset":1461724,
			"target":34962
		},
		{
			"buffer":0,
			"byteLength":1284,
			"byteOffset":1463008,
			"target":34962
		},
		{
			"buffer":0,
			"byteLength":856,
			"byteOffset":1464292,
			"target":34962
		},
		{
			"buffer":0,
			"byteLength":624,
			"byteOffset":1465148,
			"target":34963
		}
	],
	"buffers":[
		{
			"byteLength":1465772,
			"uri":"data:application/octet-stream;base64,"
		}
	]
}
